<svg width="38" height="38" viewBox="0 0 38 38" fill="none" xmlns="http://www.w3.org/2000/svg">
<path d="M32.7222 8.44446H24.2778V10.5556H32.7222V32.7222H24.2778V34.8334H34.8333V10.5556C34.8333 9.99567 34.6109 9.4587 34.215 9.06279C33.8191 8.66688 33.2821 8.44446 32.7222 8.44446Z" fill="#022A4F"/>
<path d="M20.9845 3.16666H6.46001C5.86651 3.16666 5.29732 3.40242 4.87766 3.82209C4.45799 4.24175 4.22223 4.81094 4.22223 5.40443V34.8333H23.2222V5.40443C23.2222 4.81094 22.9865 4.24175 22.5668 3.82209C22.1471 3.40242 21.5779 3.16666 20.9845 3.16666ZM21.1111 32.7222H17.9445V29.5555H9.50001V32.7222H6.33334V5.40443C6.33334 5.3878 6.33662 5.37133 6.34298 5.35596C6.34935 5.34059 6.35868 5.32663 6.37044 5.31487C6.3822 5.30311 6.39617 5.29378 6.41153 5.28741C6.4269 5.28104 6.44337 5.27777 6.46001 5.27777H20.9845C21.0011 5.27777 21.0176 5.28104 21.0329 5.28741C21.0483 5.29378 21.0623 5.30311 21.074 5.31487C21.0858 5.32663 21.0951 5.34059 21.1015 5.35596C21.1078 5.37133 21.1111 5.3878 21.1111 5.40443V32.7222Z" fill="#022A4F"/>
<path d="M8.44444 8.44446H10.5556V10.5556H8.44444V8.44446Z" fill="#022A4F"/>
<path d="M12.6667 8.44446H14.7778V10.5556H12.6667V8.44446Z" fill="#022A4F"/>
<path d="M16.8889 8.44446H19V10.5556H16.8889V8.44446Z" fill="#022A4F"/>
<path d="M8.44444 13.7222H10.5556V15.8333H8.44444V13.7222Z" fill="#022A4F"/>
<path d="M12.6667 13.7222H14.7778V15.8333H12.6667V13.7222Z" fill="#022A4F"/>
<path d="M16.8889 13.7222H19V15.8333H16.8889V13.7222Z" fill="#022A4F"/>
<path d="M8.44444 19H10.5556V21.1111H8.44444V19Z" fill="#022A4F"/>
<path d="M12.6667 19H14.7778V21.1111H12.6667V19Z" fill="#022A4F"/>
<path d="M16.8889 19H19V21.1111H16.8889V19Z" fill="#022A4F"/>
<path d="M8.44444 24.2778H10.5556V26.3889H8.44444V24.2778Z" fill="#022A4F"/>
<path d="M12.6667 24.2778H14.7778V26.3889H12.6667V24.2778Z" fill="#022A4F"/>
<path d="M16.8889 24.2778H19V26.3889H16.8889V24.2778Z" fill="#022A4F"/>
<path d="M24.2778 13.7222H26.3889V15.8333H24.2778V13.7222Z" fill="#022A4F"/>
<path d="M28.5 13.7222H30.6111V15.8333H28.5V13.7222Z" fill="#022A4F"/>
<path d="M24.2778 19H26.3889V21.1111H24.2778V19Z" fill="#022A4F"/>
<path d="M28.5 19H30.6111V21.1111H28.5V19Z" fill="#022A4F"/>
<path d="M24.2778 24.2778H26.3889V26.3889H24.2778V24.2778Z" fill="#022A4F"/>
<path d="M28.5 24.2778H30.6111V26.3889H28.5V24.2778Z" fill="#022A4F"/>
</svg>
