<svg width="20" height="20" viewBox="0 0 20 20" fill="none" xmlns="http://www.w3.org/2000/svg">
<path fill-rule="evenodd" clip-rule="evenodd" d="M20 10C20 15.5228 15.5228 20 10 20C4.47715 20 0 15.5228 0 10C0 4.47715 4.47715 0 10 0C15.5228 0 20 4.47715 20 10ZM14.3334 6.66667H11.6667V7.33334H14.3334V14.3333H11.6667V15H15V7.33334C15 7.15653 14.9298 6.98696 14.8048 6.86193C14.6797 6.73691 14.5102 6.66667 14.3334 6.66667ZM6.03998 5H10.6266C10.8141 5 10.9938 5.07445 11.1263 5.20698C11.2589 5.3395 11.3333 5.51925 11.3333 5.70667V15H5.33331V5.70667C5.33331 5.51925 5.40777 5.3395 5.54029 5.20698C5.67282 5.07445 5.85256 5 6.03998 5ZM9.66665 14.3333H10.6666V5.70667C10.6666 5.70141 10.6656 5.69621 10.6636 5.69136C10.6616 5.68651 10.6586 5.6821 10.6549 5.67838C10.6512 5.67467 10.6468 5.67172 10.642 5.66971C10.6371 5.6677 10.6319 5.66667 10.6266 5.66667H6.03998C6.03473 5.66667 6.02953 5.6677 6.02467 5.66971C6.01982 5.67172 6.01541 5.67467 6.0117 5.67838C6.00798 5.6821 6.00503 5.68651 6.00302 5.69136C6.00101 5.69621 5.99998 5.70141 5.99998 5.70667V14.3333H6.99998V13.3333H9.66665V14.3333ZM6.66669 6.66667H7.33335V7.33334H6.66669V6.66667ZM8.66667 6.66667H8V7.33334H8.66667V6.66667ZM9.33331 6.66667H9.99998V7.33334H9.33331V6.66667ZM7.33335 8.33333H6.66669V9H7.33335V8.33333ZM8 8.33333H8.66667V9H8V8.33333ZM9.99998 8.33333H9.33331V9H9.99998V8.33333ZM6.66669 10H7.33335V10.6667H6.66669V10ZM8.66667 10H8V10.6667H8.66667V10ZM9.33331 10H9.99998V10.6667H9.33331V10ZM7.33335 11.6667H6.66669V12.3333H7.33335V11.6667ZM8 11.6667H8.66667V12.3333H8V11.6667ZM9.99998 11.6667H9.33331V12.3333H9.99998V11.6667ZM11.6667 8.33333H12.3334V9H11.6667V8.33333ZM13.6667 8.33333H13V9H13.6667V8.33333ZM11.6667 10H12.3334V10.6667H11.6667V10ZM13.6667 10H13V10.6667H13.6667V10ZM11.6667 11.6667H12.3334V12.3333H11.6667V11.6667ZM13.6667 11.6667H13V12.3333H13.6667V11.6667Z" fill="white"/>
</svg>
