<svg width="162" height="226" viewBox="0 0 162 226" fill="none" xmlns="http://www.w3.org/2000/svg">
<path fill-rule="evenodd" clip-rule="evenodd" d="M127.5 160.5C127.5 131.505 120.577 116.5 91.582 116.5C62.5871 116.5 39.082 140.005 39.082 169C39.082 197.995 58.5871 197 87.582 197C111.292 197 113.018 188.316 122.5 171.5C124.614 167.751 125.13 164.237 127.5 160.5ZM110.029 161.942C111.181 159.899 112.447 157.653 113.784 155.361C113.004 148.519 110.847 145.132 109.149 143.433C107.037 141.321 102.313 138.5 91.582 138.5C74.7373 138.5 61.082 152.155 61.082 169C61.082 173.85 61.9037 176.205 62.3637 177.15C62.7118 177.865 63.0958 178.335 64.0202 178.906C66.9364 180.707 73.6451 182.5 87.582 182.5C94.614 182.5 97.5661 180.419 100.878 176.415C103.057 173.781 105.23 170.35 108.014 165.497C108.635 164.416 109.31 163.219 110.029 161.942Z" fill="#808080"/>
<path fill-rule="evenodd" clip-rule="evenodd" d="M131.5 160C131.5 131.005 114.577 111.5 85.582 111.5C56.5871 111.5 33.082 135.005 33.082 164C33.082 192.995 54.0871 194 83.082 194C110.763 194 116.099 183.655 128.5 164C122.184 161.206 124.418 154.383 131.5 160ZM83.082 183C96.5347 183 102.985 175.601 115.066 156.883C112.535 143.382 100.931 133.5 85.582 133.5C68.7373 133.5 55.082 147.155 55.082 164C55.082 172.536 57.7984 175.824 60.3694 177.744C63.9874 180.444 71.1137 183 83.082 183Z" fill="#666666"/>
<path fill-rule="evenodd" clip-rule="evenodd" d="M105.798 174.576C110.127 171.044 113.082 165.953 113.082 158C113.082 141.155 99.4267 127.5 82.582 127.5C65.7373 127.5 52.082 141.155 52.082 158C52.082 165.953 55.0367 171.044 59.3658 174.576C64.1625 178.489 72.0492 181.5 82.582 181.5C93.1148 181.5 101.002 178.489 105.798 174.576ZM82.582 193.5C111.577 193.5 122.5 186.995 122.5 158C122.5 129.005 111.577 105.5 82.582 105.5C53.5871 105.5 30.082 129.005 30.082 158C30.082 186.995 53.5871 193.5 82.582 193.5Z" fill="#595959"/>
<path fill-rule="evenodd" clip-rule="evenodd" d="M79.582 180.5C96.979 180.5 111.082 166.397 111.082 149C111.082 131.603 96.979 117.5 79.582 117.5C62.1851 117.5 48.082 131.603 48.082 149C48.082 166.397 62.1851 180.5 79.582 180.5ZM79.582 203.5C112.443 203.5 136 181.861 136 149C136 116.139 112.443 89.5 79.582 89.5C46.7211 89.5 20.082 116.139 20.082 149C20.082 181.861 46.7211 203.5 79.582 203.5Z" fill="#474747"/>
<path d="M110.582 151.5V48.5C110.582 35.5 120.082 20 139.082 20V152C138.152 166.098 135.335 174.183 126.582 186C116.582 199.5 100.082 208.5 78.5821 209C60.5821 208.5 45.5821 201 33.0821 186.5C21.082 172.58 18.082 149.5 21.082 139.5C34.4948 139.073 41.3295 140.843 49.0821 157C51.3356 162.57 52.2879 165.706 57.0821 170.5C66.0821 179.5 77.0821 183.5 91.582 178C98.4102 175.41 110.582 165 110.582 151.5Z" fill="#3D3D3D"/>
</svg>
