<svg width="22" height="24" viewBox="0 0 22 24" fill="none" xmlns="http://www.w3.org/2000/svg">
<path d="M8.05877 13.0571H11.8705V13.9279H6.99574V3.24985H8.05877V13.0571Z" fill="white"/>
<path d="M13.1764 19.499C12.4468 19.499 11.8018 19.3716 11.2413 19.1167C10.6915 18.8618 10.2579 18.506 9.94069 18.0493C9.62346 17.5926 9.45427 17.0829 9.43312 16.52H10.6069C10.6597 17.0616 10.8977 17.5395 11.3206 17.9537C11.7436 18.3573 12.3622 18.5591 13.1764 18.5591C13.9272 18.5591 14.5194 18.3679 14.9529 17.9856C15.397 17.5926 15.6191 17.0988 15.6191 16.5041C15.6191 16.0261 15.4975 15.6438 15.2543 15.3571C15.0111 15.0597 14.7097 14.842 14.3502 14.7039C13.9906 14.5552 13.4937 14.3959 12.8592 14.226C12.119 14.0242 11.5321 13.8277 11.0986 13.6365C10.665 13.4454 10.2949 13.148 9.98827 12.7444C9.68162 12.3409 9.52829 11.7939 9.52829 11.1036C9.52829 10.5301 9.67633 10.0203 9.97241 9.57425C10.2685 9.11758 10.6862 8.7618 11.2255 8.50691C11.7648 8.25202 12.3834 8.12457 13.0813 8.12457C14.107 8.12457 14.9318 8.37946 15.5556 8.88924C16.1901 9.3884 16.5549 10.0362 16.6501 10.8328H15.4446C15.3706 10.3761 15.1221 9.97252 14.6991 9.62205C14.2762 9.26095 13.7051 9.08041 12.9861 9.08041C12.3199 9.08041 11.7648 9.26095 11.3206 9.62205C10.8765 9.97252 10.6545 10.4557 10.6545 11.0717C10.6545 11.539 10.7761 11.916 11.0193 12.2028C11.2625 12.4895 11.5638 12.7073 11.9234 12.856C12.2935 13.0046 12.7905 13.1639 13.4143 13.3339C14.1334 13.5357 14.715 13.7374 15.1591 13.9392C15.6032 14.1304 15.9786 14.4278 16.2853 14.8313C16.5919 15.2349 16.7453 15.7766 16.7453 16.4563C16.7453 16.9767 16.6078 17.4705 16.3329 17.9378C16.0579 18.4051 15.6508 18.7821 15.1115 19.0689C14.5722 19.3556 13.9272 19.499 13.1764 19.499Z" fill="white"/>
<path d="M0.380005 11.639C0.380005 9.39115 0.843384 7.39189 1.77014 5.64118C2.71845 3.86885 4.0116 2.48558 5.64959 1.49135C7.30914 0.497115 9.16265 0 11.2101 0C13.7964 0 15.9732 0.605184 17.7406 1.81555C19.5079 3.02592 20.801 4.72259 21.62 6.90558H19.9389C19.2923 5.17648 18.2147 3.81482 16.706 2.82059C15.2189 1.80474 13.3869 1.29682 11.2101 1.29682C9.46439 1.29682 7.88028 1.71829 6.45781 2.56122C5.03535 3.38254 3.91462 4.58211 3.09562 6.1599C2.27663 7.71609 1.86713 9.54245 1.86713 11.639C1.86713 13.7139 2.27663 15.5294 3.09562 17.0856C3.91462 18.6202 5.03535 19.809 6.45781 20.6519C7.88028 21.4948 9.46439 21.9163 11.2101 21.9163C13.3869 21.9163 15.2189 21.4192 16.706 20.4249C18.2147 19.4091 19.2923 18.0366 19.9389 16.3075H21.62C20.801 18.4905 19.5079 20.1872 17.7406 21.3976C15.9732 22.6079 13.7964 23.2131 11.2101 23.2131C9.16265 23.2131 7.30914 22.7268 5.64959 21.7542C4.0116 20.76 2.71845 19.3875 1.77014 17.6368C0.843384 15.8645 0.380005 13.8652 0.380005 11.639Z" fill="white"/>
</svg>
